<svg xmlns="http://www.w3.org/2000/svg" xmlns:xlink="http://www.w3.org/1999/xlink" version="1.1" x="0px" y="0px" viewBox="0 0 52 52" enable-background="new 0 0 52 52" xml:space="preserve"><g><line fill="none" stroke="#FFFFFF" stroke-width="2" stroke-miterlimit="10" x1="3.0000005" y1="21.5" x2="10.0002003" y2="15.7172003"/><path fill="none" stroke="#FFFFFF" stroke-width="2" stroke-miterlimit="10" d="M48.9500008,21.5   C48.9776001,21.5,49,21.5223999,49,21.5499992V49h-46V21.5499992C3.0000005,21.5223999,3.0224006,21.5,3.0500007,21.5"/><polyline fill="none" stroke="#FFFFFF" stroke-width="2" stroke-miterlimit="10" points="3.0000005,21.5 26,36 49,21.5  "/><line fill="none" stroke="#FFFFFF" stroke-width="2" stroke-miterlimit="10" x1="49" y1="49" x2="30.8806" y2="32.9230995"/><line fill="none" stroke="#FFFFFF" stroke-width="2" stroke-miterlimit="10" x1="3.0000005" y1="49" x2="21.1194" y2="32.9230995"/><polyline fill="none" stroke="#FFFFFF" stroke-width="2" stroke-miterlimit="10" points="10,25.9235001 10,8.5 42,8.5    42,25.9235001  "/><line fill="none" stroke="#FFFFFF" stroke-width="2" stroke-miterlimit="10" x1="41.9976997" y1="15.7154999" x2="49" y2="21.5"/><polyline fill="none" stroke="#FFFFFF" stroke-width="2" stroke-miterlimit="10" points="18.7369995,8.4998999 26,3    33.267498,8.5036001  "/><g><path fill="none" stroke="#000000" stroke-width="2" stroke-miterlimit="10" d="M28.5746994,17.1098003    c0,0-2.7957001-0.5592995-4.2761002,0.2293987c-1.8497982,0.9856014-2.7388992,2.5404015-2.4133987,5.0229015    c0.1189003,0.9063988,1.1154995,2.3078995,2.3073997,2.7306995c0.9977989,0.3537998,2.3234005,0.3537998,3.6346989-1.0615997    L28.5746994,17.1098003z"/><path fill="none" stroke="#FFFFFF" stroke-width="2" stroke-miterlimit="10" d="M27.8272991,24.0312004    c0,0,0.716301,2.7707996,3.2259998,1.4158993c1.4831009-0.8006992,2.4006996-2.3561001,2.5541-4.0345001    C33.6209984,21.2646999,33.6287994,21.1252003,33.6287994,21c0-4.4183006-3.4154987-8-7.6287994-8    c-4.2131996,0-7.6287994,3.5816994-7.6287994,8c0,4.4181995,3.4155998,8,7.6287994,8    c1.0447006,0,2.0403996-0.2203007,2.9470997-0.6187992"/></g><line fill="none" stroke="#FFFFFF" stroke-width="2" stroke-miterlimit="10" x1="16" y1="45" x2="36" y2="45"/></g><text x="0" y="67" fill="#000000" font-size="5px" font-weight="bold" font-family="'Helvetica Neue', Helvetica, Arial-Unicode, Arial, Sans-serif"></text><text x="0" y="72" fill="#000000" font-size="5px" font-weight="bold" font-family="'Helvetica Neue', Helvetica, Arial-Unicode, Arial, Sans-serif"></text></svg>